<svg width="14" height="21" viewBox="0 0 14 21" fill="none" xmlns="http://www.w3.org/2000/svg">
<g id="artist-icon">
<path id="Vector" d="M7.00002 1C6.31803 1 5.66398 1.27092 5.18174 1.75315C4.69951 2.23539 4.42859 2.88944 4.42859 3.57143V10.4286C4.42859 11.1106 4.69951 11.7646 5.18174 12.2468C5.66398 12.7291 6.31803 13 7.00002 13C7.682 13 8.33606 12.7291 8.81829 12.2468C9.30053 11.7646 9.57145 11.1106 9.57145 10.4286V3.57143C9.57145 2.88944 9.30053 2.23539 8.81829 1.75315C8.33606 1.27092 7.682 1 7.00002 1Z" stroke="#F4F4F4" stroke-width="1.5" stroke-linecap="round" stroke-linejoin="round"/>
<path id="Vector_2" d="M13 8.71428V10.4286C13 12.0199 12.3679 13.546 11.2426 14.6712C10.1174 15.7964 8.5913 16.4286 7 16.4286C5.4087 16.4286 3.88258 15.7964 2.75736 14.6712C1.63214 13.546 1 12.0199 1 10.4286V8.71428" stroke="#F4F4F4" stroke-width="1.5" stroke-linecap="round" stroke-linejoin="round"/>
<path id="Vector_3" d="M7 16.4286V19.8571" stroke="#F4F4F4" stroke-width="1.5" stroke-linecap="round" stroke-linejoin="round"/>
<path id="Vector_4" d="M3.57141 19.8571H10.4286" stroke="#F4F4F4" stroke-width="1.5" stroke-linecap="round" stroke-linejoin="round"/>
</g>
</svg>
