<?xml version="1.0" encoding="UTF-8"?>
<svg version="1.1" xmlns="http://www.w3.org/2000/svg" width="512" height="512">
<path d="M0 0 C4.10376824 0.00935986 8.20742177 -0.01030778 12.31115675 -0.02597725 C20.32545862 -0.05191195 28.339535 -0.05102077 36.35386275 -0.03993907 C42.87498932 -0.03134054 49.39605121 -0.03224286 55.91717863 -0.03973496 C57.31549359 -0.04131729 57.31549359 -0.04131729 58.74205733 -0.04293159 C60.63653084 -0.04510277 62.53100434 -0.04728955 64.42547782 -0.04949174 C82.14424926 -0.06887043 99.86289483 -0.05697305 117.58165593 -0.0347058 C132.74304911 -0.0164622 147.90419863 -0.02735854 163.06556654 -0.05901253 C180.72282413 -0.09587601 198.37992972 -0.11276133 216.03722584 -0.09960026 C217.9248936 -0.09825933 219.81256137 -0.09695034 221.70022917 -0.09567368 C222.62870283 -0.09504301 223.55717649 -0.09441235 224.51378571 -0.09376257 C231.01640745 -0.09075066 237.51891331 -0.10192734 244.0215106 -0.11892426 C251.96156084 -0.13936812 259.90126779 -0.13819997 267.84130071 -0.11029186 C271.88262305 -0.0966328 275.92334852 -0.09208478 279.96464682 -0.11424172 C319.03637813 -0.31239538 319.03637813 -0.31239538 334.44251966 9.66828239 C336.10737205 10.33946697 337.77407501 11.006078 339.44251966 11.66828239 C341.23403829 12.63073327 343.00546275 13.63150792 344.75501966 14.66828239 C345.63802748 15.18390739 346.52103529 15.69953239 347.43080091 16.23078239 C348.4266017 16.94234489 348.4266017 16.94234489 349.44251966 17.66828239 C349.44251966 18.32828239 349.44251966 18.98828239 349.44251966 19.66828239 C350.14763685 19.89386833 350.85275404 20.11945426 351.57923841 20.35187614 C355.03405288 21.94024241 357.52742261 24.14597762 360.25501966 26.73078239 C360.77620375 27.21812858 361.29738783 27.70547477 361.83436537 28.20758903 C373.97532649 39.69764052 373.97532649 39.69764052 374.96205091 43.85968864 C375.1206056 44.45652458 375.27916029 45.05336051 375.44251966 45.66828239 C376.43251966 45.99828239 377.42251966 46.32828239 378.44251966 46.66828239 C380.47266456 49.44708537 381.89906985 52.59877374 383.44251966 55.66828239 C383.93107435 56.59898551 384.41962904 57.52968864 384.92298841 58.48859489 C394.56092375 77.86357029 395.18758523 97.02950308 395.11080205 118.22576272 C395.10144219 122.32953096 395.12110984 126.43318449 395.13677931 130.53691947 C395.16271401 138.55122134 395.16182283 146.56529773 395.15074112 154.57962547 C395.14214259 161.10075204 395.14304492 167.62181393 395.15053701 174.14294136 C395.15211935 175.54125631 395.15211935 175.54125631 395.15373364 176.96782006 C395.15590483 178.86229357 395.15809161 180.75676706 395.1602938 182.65124054 C395.17967248 200.37001199 395.1677751 218.08865755 395.14550785 235.80741866 C395.12726425 250.96881184 395.13816059 266.12996135 395.16981459 281.29132926 C395.20667807 298.94858685 395.22356338 316.60569245 395.21040231 334.26298857 C395.20906138 336.15065632 395.20775239 338.0383241 395.20647573 339.92599189 C395.20552974 341.31870238 395.20552974 341.31870238 395.20456463 342.73954844 C395.20155272 349.24217017 395.2127294 355.74467604 395.22972631 362.24727333 C395.25017017 370.18732356 395.24900202 378.12703051 395.22109392 386.06706344 C395.20743485 390.10838577 395.20288684 394.14911124 395.22504377 398.19040954 C395.42319743 437.26214085 395.42319743 437.26214085 385.44251966 452.66828239 C384.77133508 454.33313478 384.10472406 455.99983773 383.44251966 457.66828239 C382.48006878 459.45980102 381.47929413 461.23122548 380.44251966 462.98078239 C379.92689466 463.8637902 379.41126966 464.74679801 378.88001966 465.65656364 C378.16845716 466.65236442 378.16845716 466.65236442 377.44251966 467.66828239 C376.78251966 467.66828239 376.12251966 467.66828239 375.44251966 467.66828239 C375.21693373 468.37339958 374.99134779 469.07851676 374.75892591 469.80500114 C373.17055965 473.2598156 370.96482443 475.75318534 368.38001966 478.48078239 C367.89267347 479.00196647 367.40532728 479.52315055 366.90321302 480.06012809 C355.41316154 492.20108922 355.41316154 492.20108922 351.25111341 493.18781364 C350.35585951 493.42564567 350.35585951 493.42564567 349.44251966 493.66828239 C349.11251966 494.65828239 348.78251966 495.64828239 348.44251966 496.66828239 C345.66384901 498.69833061 342.51276752 500.1266445 339.44251966 501.66828239 C338.50021498 502.15683708 337.55791029 502.64539176 336.58705091 503.14875114 C317.39445465 512.61126058 299.02126758 513.41259407 278.015764 513.33656478 C273.9133222 513.32721316 269.81099567 513.34686717 265.70858717 513.36254203 C257.69448113 513.38849041 249.68060048 513.38758126 241.66646853 513.37650385 C235.1448499 513.36790766 228.62329595 513.36880583 222.10167646 513.37629974 C221.16961973 513.37735463 220.23756299 513.37840952 219.27726211 513.37949637 C217.38311279 513.38166755 215.48896349 513.38385433 213.59481421 513.38605652 C195.87410933 513.40544043 178.15353027 513.39353349 160.43283573 513.37127057 C145.27174877 513.35303272 130.11090555 513.36391433 114.94984388 513.39557731 C97.29404886 513.43244895 79.63840589 513.44932273 61.98257232 513.43616503 C60.09459021 513.43482411 58.20660808 513.43351512 56.31862593 513.43223846 C55.38999799 513.43160779 54.46137006 513.43097713 53.50460188 513.43032735 C47.00296246 513.4273163 40.501439 513.43848851 33.99982405 513.45548904 C26.05868027 513.47594298 18.11787971 513.47475001 10.17675319 513.44685664 C6.13531398 513.43320598 2.0944713 513.42863055 -1.94694376 513.4508065 C-42.36530613 513.65594611 -42.36530613 513.65594611 -57.55748034 503.66828239 C-59.22233272 502.9970978 -60.88903568 502.33048678 -62.55748034 501.66828239 C-64.34899896 500.70583151 -66.12042342 499.70505686 -67.86998034 498.66828239 C-68.75298815 498.15265739 -69.63599596 497.63703239 -70.54576159 497.10578239 C-71.54156237 496.39421989 -71.54156237 496.39421989 -72.55748034 495.66828239 C-72.55748034 495.00828239 -72.55748034 494.34828239 -72.55748034 493.66828239 C-73.26259752 493.44269645 -73.96771471 493.21711051 -74.69419909 492.98468864 C-78.14901355 491.39632237 -80.64238328 489.19058716 -83.36998034 486.60578239 C-83.89116442 486.1184362 -84.4123485 485.63109001 -84.94932604 485.12897575 C-97.09028716 473.63892426 -97.09028716 473.63892426 -98.07701159 469.47687614 C-98.23556627 468.8800402 -98.39412096 468.28320426 -98.55748034 467.66828239 C-99.54748034 467.33828239 -100.53748034 467.00828239 -101.55748034 466.66828239 C-103.58752856 463.88961173 -105.01584245 460.73853024 -106.55748034 457.66828239 C-107.04603502 456.7259777 -107.53458971 455.78367301 -108.03794909 454.81281364 C-117.50045852 435.62021737 -118.30179202 417.24703031 -118.22576272 396.24152672 C-118.2164111 392.13908492 -118.23606512 388.0367584 -118.25173998 383.93434989 C-118.27768836 375.92024385 -118.2767792 367.90636321 -118.26570179 359.89223126 C-118.2571056 353.37061262 -118.25800378 346.84905867 -118.26549768 340.32743919 C-118.26655257 339.39538245 -118.26760746 338.46332571 -118.26869432 337.50302483 C-118.27086549 335.60887552 -118.27305227 333.71472622 -118.27525447 331.82057694 C-118.29463838 314.09987206 -118.28273143 296.379293 -118.26046852 278.65859845 C-118.24223066 263.4975115 -118.25311227 248.33666828 -118.28477526 233.17560661 C-118.32164689 215.51981159 -118.33852068 197.86416861 -118.32536298 180.20833504 C-118.32402205 178.32035293 -118.32271307 176.4323708 -118.32143641 174.54438865 C-118.32080574 173.61576072 -118.32017507 172.68713278 -118.3195253 171.73036461 C-118.31651424 165.22872519 -118.32768646 158.72720172 -118.34468699 152.22558677 C-118.36514093 144.28444299 -118.36394796 136.34364243 -118.33605459 128.40251592 C-118.32240393 124.3610767 -118.3178285 120.32023402 -118.34000444 116.27881896 C-118.54514405 75.8604566 -118.54514405 75.8604566 -108.55748034 60.66828239 C-107.88629575 59.00343 -107.21968473 57.33672704 -106.55748034 55.66828239 C-105.59502945 53.87676376 -104.5942548 52.1053393 -103.55748034 50.35578239 C-103.04185534 49.47277458 -102.52623034 48.58976676 -101.99498034 47.68000114 C-101.52060534 47.01613395 -101.04623034 46.35226676 -100.55748034 45.66828239 C-99.89748034 45.66828239 -99.23748034 45.66828239 -98.55748034 45.66828239 C-98.31384752 44.94382926 -98.07021471 44.21937614 -97.81919909 43.47296989 C-95.52916845 38.38243738 -91.36665869 34.67794382 -87.55748034 30.66828239 C-86.91810534 29.98765739 -86.27873034 29.30703239 -85.61998034 28.60578239 C-82.19521006 25.05869889 -78.82824594 22.15128565 -74.55748034 19.66828239 C-73.89748034 19.66828239 -73.23748034 19.66828239 -72.55748034 19.66828239 C-72.06248034 18.18328239 -72.06248034 18.18328239 -71.55748034 16.66828239 C-68.77867736 14.6381375 -65.62698899 13.21173221 -62.55748034 11.66828239 C-61.62677721 11.1797277 -60.69607409 10.69117301 -59.73716784 10.18781364 C-40.36219244 0.54987831 -21.19625964 -0.07678318 0 0 Z " fill="#000000" transform="translate(117.5574803352356,-0.6682823896408081)"/>
<path d="M0 0 C0.61262695 0.32226562 1.22525391 0.64453125 1.85644531 0.9765625 C10.96849484 5.82056938 19.00084853 11.53562854 27 18 C27.90105469 18.69609375 28.80210937 19.3921875 29.73046875 20.109375 C42.46166623 30.11380197 53.69310627 41.75974352 63 55 C63.41056641 55.57685547 63.82113281 56.15371094 64.24414062 56.74804688 C75.61268858 72.8316608 85.01292102 90.39387635 90.26171875 109.4609375 C90.91842759 111.71945996 91.66852526 113.90982929 92.4453125 116.12890625 C105.85207075 156.36153745 99.71679423 206.35914723 82 244 C81.54596802 244.973927 81.54596802 244.973927 81.08276367 245.9675293 C71.89886971 265.40079725 59.89143727 282.48037588 45 298 C44.48920898 298.53802246 43.97841797 299.07604492 43.45214844 299.63037109 C31.84409337 311.80702775 19.30735844 321.14479011 4.92626953 329.82080078 C3.59422919 330.63623232 2.27281242 331.46918136 0.96044922 332.31591797 C-3.00645972 334.87140467 -6.78355077 336.89665925 -11.25 338.5 C-15.67576872 340.11356151 -19.95937808 341.86968012 -24.25 343.8125 C-29.12913456 345.84547273 -33.73787654 347.42701653 -39 346 C-42.02922148 343.12223959 -43.91423955 340.56453381 -44.14476013 336.35913086 C-44.154272 335.23901611 -44.16378387 334.11890137 -44.17358398 332.96484375 C-44.18707382 331.69592285 -44.20056366 330.42700195 -44.21446228 329.11962891 C-44.21952223 328.43878235 -44.22458218 327.75793579 -44.22979546 327.05645752 C-44.24623181 324.91955015 -44.26947703 322.78281682 -44.29469299 320.64599609 C-44.36534994 314.56926212 -44.4252124 308.49245228 -44.47680664 302.41552734 C-44.50885028 298.69780991 -44.55020031 294.98028529 -44.59700203 291.26272583 C-44.6128876 289.85315472 -44.62527015 288.44353917 -44.63390923 287.03390503 C-44.5659559 272.15041416 -44.5659559 272.15041416 -49.9375 258.5625 C-50.44152344 257.75941406 -50.94554687 256.95632813 -51.46484375 256.12890625 C-52.91884204 253.98603327 -52.91884204 253.98603327 -54.69140625 252.33984375 C-56 251 -56 251 -56 249 C-55.38705078 248.90501221 -54.77410156 248.81002441 -54.14257812 248.7121582 C-26.81065643 244.40640951 -3.95037361 237.99412172 14.1875 215.61328125 C15.91514865 213.12233956 17.01254669 210.85435723 18 208 C18.66 208 19.32 208 20 208 C20.103125 207.195625 20.20625 206.39125 20.3125 205.5625 C20.8328289 202.86625023 21.42865079 200.56988766 22.3125 198 C23.67550601 194.02512533 24.93101994 190.02914 26.125 186 C26.45757812 184.88625 26.79015625 183.7725 27.1328125 182.625 C32.55244249 159.96997015 30.11811792 136.99060275 18.78515625 116.765625 C17.18362164 114.28447292 15.54846676 112.29775346 13.5 110.1875 C11.71149504 108.289882 11.04295527 107.49718445 10.81640625 104.875 C11.1342255 102.04994003 11.72562292 99.54875416 13 97 C14.09305046 84.72802438 12.66290924 72.94859794 10 61 C9.6534511 59.00224752 9.31544141 57.00289985 9 55 C-8.49580422 53.95271594 -27.54687739 63.28784624 -41 74 C-41.33 74.33 -41.66 74.66 -42 75 C-48.3300247 74.50352747 -54.44319505 73.09728395 -60.6328125 71.71875 C-66.84596142 70.3925094 -72.61638513 69.85135118 -78.94921875 69.8671875 C-80.2291143 69.86575241 -80.2291143 69.86575241 -81.53486633 69.86428833 C-83.33598911 69.86361002 -85.13711438 69.86543988 -86.93823242 69.86962891 C-89.66135315 69.87494892 -92.38430645 69.86968916 -95.10742188 69.86328125 C-112.22309592 69.81898978 -112.22309592 69.81898978 -128.9375 73.125 C-134.05797523 74.66061305 -136.95964701 75.48339137 -141.79589844 73.1237793 C-142.3943457 72.77742432 -142.99279297 72.43106934 -143.609375 72.07421875 C-144.28226563 71.68943359 -144.95515625 71.30464844 -145.6484375 70.90820312 C-146.34195313 70.50537109 -147.03546875 70.10253906 -147.75 69.6875 C-160.85334384 62.12692043 -174.38701723 54.53932594 -190 56 C-190.64715133 58.0829243 -191.29267166 60.16635539 -191.9375 62.25 C-192.29714844 63.41015625 -192.65679687 64.5703125 -193.02734375 65.765625 C-196.31394433 76.69456185 -196.91730855 90.39344513 -192.65625 101.125 C-192 103 -192 103 -192 107 C-193.15116612 108.15116612 -194.30959763 109.29600121 -195.50390625 110.40234375 C-201.06315983 116.33898791 -204.41105723 124.3916784 -207 132 C-207.25297852 132.65589111 -207.50595703 133.31178223 -207.76660156 133.98754883 C-210.27470361 141.13028427 -210.45970216 148.10764091 -210.39111328 155.60229492 C-210.37515694 157.66719001 -210.39096681 159.73008931 -210.41015625 161.79492188 C-210.44556389 183.70115258 -204.03594205 206.52147309 -189.62890625 223.390625 C-172.15583685 240.73387962 -149.53172583 245.86431309 -126 249 C-127.46407515 251.99318547 -129.11164438 254.71243417 -130.9375 257.5 C-133.42656524 261.49435708 -134.44029806 264.74461225 -135.1875 269.375 C-136.2842198 274.52165498 -136.2842198 274.52165498 -139.4140625 276.61328125 C-150.7708895 280.82234786 -164.10677592 282.11284258 -175.44140625 277.375 C-184.59270638 272.45704939 -189.572568 264.57218567 -195 256 C-199.72159392 248.98506046 -207.53119238 244.73440381 -215 241 C-217.2072923 240.92907158 -219.41667452 240.91584975 -221.625 240.9375 C-223.40777344 240.95103516 -223.40777344 240.95103516 -225.2265625 240.96484375 C-226.14179688 240.97644531 -227.05703125 240.98804688 -228 241 C-228.33 241.99 -228.66 242.98 -229 244 C-226.59077035 248.32613846 -222.89307143 251.17852523 -218.6875 253.625 C-209.03881653 259.7650713 -204.58531827 270.58528295 -200.4453125 280.765625 C-196.51212899 289.56745188 -190.72999666 295.03956966 -182 299 C-172.28174632 302.15000781 -162.76893463 302.37500124 -152.6875 302.1875 C-151.2532695 302.17240284 -149.81902336 302.15872346 -148.38476562 302.14648438 C-144.92284361 302.11393 -141.46152763 302.06243621 -138 302 C-137.87618851 307.46256275 -137.78556174 312.92430488 -137.7253418 318.38793945 C-137.70023298 320.24550609 -137.66613866 322.10297427 -137.62280273 323.96020508 C-137.56198876 326.63387358 -137.5337548 329.30623365 -137.51171875 331.98046875 C-137.48591232 332.80773972 -137.4601059 333.63501068 -137.43351746 334.48735046 C-137.43144149 338.77737995 -137.61486689 340.49159799 -140.28833008 344.02075195 C-143.34802432 346.25402297 -145.46238279 346.77374891 -149.2421875 346.54296875 C-154.76247785 345.45611272 -159.84672013 343.18863935 -164.95996094 340.90625 C-166.96562794 340.01526916 -168.98474185 339.16307569 -171.0078125 338.3125 C-188.79325232 330.61391192 -204.90720164 319.24285195 -219 306 C-219.55091309 305.48614746 -220.10182617 304.97229492 -220.66943359 304.44287109 C-241.95186062 284.40546296 -259.58939424 258.69082432 -269 231 C-269.35022217 229.98244629 -269.35022217 229.98244629 -269.70751953 228.94433594 C-271.18439529 224.64405143 -272.62645936 220.33461557 -274 216 C-274.33257812 214.95199219 -274.66515625 213.90398437 -275.0078125 212.82421875 C-284.36144068 176.7722424 -283.2851208 133.36062196 -268 99 C-267.26395046 97.00252281 -266.53475779 95.00250536 -265.8125 93 C-255.52253868 66.18466797 -236.38754066 39.97422619 -214 22 C-213.03320312 21.195625 -212.06640625 20.39125 -211.0703125 19.5625 C-183.50724207 -3.04265393 -150.60252108 -18.05057721 -115 -22 C-114.18305664 -22.0913623 -113.36611328 -22.18272461 -112.52441406 -22.27685547 C-72.49283869 -26.34380835 -35.39979842 -18.72740472 0 0 Z " fill="#FDFDFD" transform="translate(350,93)"/>
</svg>
