<?xml version="1.0" encoding="UTF-8"?>
<!DOCTYPE svg PUBLIC "-//W3C//DTD SVG 1.1//EN" "http://www.w3.org/Graphics/SVG/1.1/DTD/svg11.dtd">
<svg xmlns="http://www.w3.org/2000/svg" version="1.1" width="512px" height="389px" style="shape-rendering:geometricPrecision; text-rendering:geometricPrecision; image-rendering:optimizeQuality; fill-rule:evenodd; clip-rule:evenodd" xmlns:xlink="http://www.w3.org/1999/xlink">
<g><path style="opacity:0.998" fill="#d6332d" d="M 467.5,-0.5 C 474.833,-0.5 482.167,-0.5 489.5,-0.5C 499.568,4.53752 506.902,12.2042 511.5,22.5C 511.5,27.8333 511.5,33.1667 511.5,38.5C 509.461,39.911 508.461,41.911 508.5,44.5C 506.774,46.2279 505.441,48.2279 504.5,50.5C 502.372,53.1303 500.039,55.6303 497.5,58C 481.922,68.9434 466.589,80.1101 451.5,91.5C 449.463,92.8465 447.463,94.1798 445.5,95.5C 444.5,95.8333 443.833,96.5 443.5,97.5C 412.441,119.356 381.774,141.689 351.5,164.5C 319.094,188.246 286.427,211.58 253.5,234.5C 191.114,188.114 128.448,142.114 65.5,96.5C 63.2722,95.6229 61.2722,94.2896 59.5,92.5C 48.8333,84.8333 38.1667,77.1667 27.5,69.5C 18.8581,64.0036 11.1914,57.3369 4.5,49.5C 3.24431,44.8912 2.07764,40.2245 1,35.5C 0.833071,143.001 0.333071,250.334 -0.5,357.5C -0.5,246.5 -0.5,135.5 -0.5,24.5C 6.09119,7.29601 18.7579,-0.703986 37.5,0.5C 43.8497,2.8433 49.8497,6.00997 55.5,10C 122,58.5 188.5,107 255,155.5C 325.402,103.584 395.902,51.9171 466.5,0.5C 467.167,0.5 467.5,0.166667 467.5,-0.5 Z"/></g>
<g><path style="opacity:0.988" fill="#e3e2e2" d="M 37.5,0.5 C 180.5,0.5 323.5,0.5 466.5,0.5C 395.902,51.9171 325.402,103.584 255,155.5C 188.5,107 122,58.5 55.5,10C 49.8497,6.00997 43.8497,2.8433 37.5,0.5 Z"/></g>
<g><path style="opacity:1" fill="#d54a3c" d="M 472.5,4.5 C 491.776,2.94386 502.776,11.6105 505.5,30.5C 505.411,40.6077 501.411,48.7744 493.5,55C 413.693,112.64 334.027,170.473 254.5,228.5C 173.401,169.867 92.5673,110.867 12,51.5C 5.84159,43.5273 3.84159,34.5273 6,24.5C 14.248,7.45665 27.4146,2.28998 45.5,9C 115.262,59.6279 185.095,110.128 255,160.5C 323.77,110.734 392.27,60.5675 460.5,10C 464.284,7.47128 468.284,5.63795 472.5,4.5 Z"/></g>
<g><path style="opacity:1" fill="#d72c28" d="M 4.5,49.5 C 4.33334,152.834 4.5,256.167 5,359.5C 7.09137,369.261 12.5914,376.428 21.5,381C 33.7718,382.418 46.1051,382.918 58.5,382.5C 59.333,289.668 59.833,196.668 60,103.5C 61.0391,104.71 62.2058,105.71 63.5,106.5C 63.5,200.5 63.5,294.5 63.5,388.5C 50.8333,388.5 38.1667,388.5 25.5,388.5C 12.5945,384.595 3.92785,376.262 -0.5,363.5C -0.5,361.5 -0.5,359.5 -0.5,357.5C 0.333071,250.334 0.833071,143.001 1,35.5C 2.07764,40.2245 3.24431,44.8912 4.5,49.5 Z"/></g>
<g><path style="opacity:0.988" fill="#b42d28" d="M 511.5,38.5 C 511.5,146.5 511.5,254.5 511.5,362.5C 510.797,364.629 509.797,366.629 508.5,368.5C 509.822,260.347 509.822,152.347 508.5,44.5C 508.461,41.911 509.461,39.911 511.5,38.5 Z"/></g>
<g><path style="opacity:1" fill="#ae2622" d="M 508.5,44.5 C 509.822,152.347 509.822,260.347 508.5,368.5C 507.12,374.098 504.12,378.598 499.5,382C 495.033,384.233 490.7,386.4 486.5,388.5C 473.167,388.5 459.833,388.5 446.5,388.5C 446.833,290.665 446.499,192.999 445.5,95.5C 447.463,94.1798 449.463,92.8465 451.5,91.5C 451.5,188.833 451.5,286.167 451.5,383.5C 462.172,383.667 472.839,383.5 483.5,383C 494.667,379.833 501.833,372.667 505,361.5C 505.833,257.666 505.666,153.999 504.5,50.5C 505.441,48.2279 506.774,46.2279 508.5,44.5 Z"/></g>
<g><path style="opacity:1" fill="#ab3b30" d="M 504.5,50.5 C 505.666,153.999 505.833,257.666 505,361.5C 501.833,372.667 494.667,379.833 483.5,383C 472.839,383.5 462.172,383.667 451.5,383.5C 451.5,286.167 451.5,188.833 451.5,91.5C 466.589,80.1101 481.922,68.9434 497.5,58C 500.039,55.6303 502.372,53.1303 504.5,50.5 Z"/></g>
<g><path style="opacity:1" fill="#d54a3c" d="M 4.5,49.5 C 11.1914,57.3369 18.8581,64.0036 27.5,69.5C 27.0618,69.4346 26.7284,69.6012 26.5,70C 37.3688,80.7016 48.0354,91.5349 58.5,102.5C 58.5,195.833 58.5,289.167 58.5,382.5C 46.1051,382.918 33.7718,382.418 21.5,381C 12.5914,376.428 7.09137,369.261 5,359.5C 4.5,256.167 4.33334,152.834 4.5,49.5 Z"/></g>
<g><path style="opacity:1" fill="#be4135" d="M 27.5,69.5 C 38.1667,77.1667 48.8333,84.8333 59.5,92.5C 59.8128,96.0419 59.4794,99.3752 58.5,102.5C 48.0354,91.5349 37.3688,80.7016 26.5,70C 26.7284,69.6012 27.0618,69.4346 27.5,69.5 Z"/></g>
<g><path style="opacity:1" fill="#b69c9b" d="M 445.5,95.5 C 446.499,192.999 446.833,290.665 446.5,388.5C 446.167,388.5 445.833,388.5 445.5,388.5C 446.164,291.161 445.498,194.161 443.5,97.5C 443.833,96.5 444.5,95.8333 445.5,95.5 Z"/></g>
<g><path style="opacity:0.999" fill="#bab9b9" d="M 443.5,97.5 C 445.498,194.161 446.164,291.161 445.5,388.5C 435.167,388.5 424.833,388.5 414.5,388.5C 414.607,386.621 414.107,386.288 413,387.5C 395.408,387.151 377.908,386.151 360.5,384.5C 359.808,385.025 359.308,385.692 359,386.5C 358.535,385.069 357.701,383.903 356.5,383C 356.591,371.751 356.924,360.418 357.5,349C 355.027,347.598 355.027,346.098 357.5,344.5C 357.023,343.522 356.357,342.689 355.5,342C 358.167,340.333 358.167,338.667 355.5,337C 358.167,335.333 358.167,333.667 355.5,332C 358.167,330.333 358.167,328.667 355.5,327C 358.167,325.333 358.167,323.667 355.5,322C 358.167,320.333 358.167,318.667 355.5,317C 358.167,315.333 358.167,313.667 355.5,312C 358.167,310.333 358.167,308.667 355.5,307C 358.167,305.333 358.167,303.667 355.5,302C 356.167,301.333 356.833,300.667 357.5,300C 356.167,287.333 356.167,274.667 357.5,262C 355.027,260.598 355.027,259.098 357.5,257.5C 357.023,256.522 356.357,255.689 355.5,255C 358.167,253.333 358.167,251.667 355.5,250C 358.167,248.333 358.167,246.667 355.5,245C 358.167,243.333 358.167,241.667 355.5,240C 358.167,238.333 358.167,236.667 355.5,235C 358.167,233.333 358.167,231.667 355.5,230C 358.167,228.333 358.167,226.667 355.5,225C 358.167,223.333 358.167,221.667 355.5,220C 358.167,218.333 358.167,216.667 355.5,215C 356.167,214.333 356.833,213.667 357.5,213C 356.167,200.333 356.167,187.667 357.5,175C 355.027,173.598 355.027,172.098 357.5,170.5C 357.023,169.522 356.357,168.689 355.5,168C 358.287,166.093 358.12,164.593 355,163.5C 353.862,163.989 352.695,164.322 351.5,164.5C 381.774,141.689 412.441,119.356 443.5,97.5 Z"/></g>
<g><path style="opacity:1" fill="#d33e33" d="M 59.5,92.5 C 61.2722,94.2896 63.2722,95.6229 65.5,96.5C 63.5977,99.3373 62.931,102.671 63.5,106.5C 62.2058,105.71 61.0391,104.71 60,103.5C 59.833,196.668 59.333,289.668 58.5,382.5C 58.5,289.167 58.5,195.833 58.5,102.5C 59.4794,99.3752 59.8128,96.0419 59.5,92.5 Z"/></g>
<g><path style="opacity:1" fill="#cfcfcf" d="M 218.5,262.5 C 218.5,262.833 218.5,263.167 218.5,263.5C 167.167,304.5 115.833,345.5 64.5,386.5C 64.3333,293.833 64.5,201.166 65,108.5C 115.954,160.103 167.12,211.436 218.5,262.5 Z"/></g>
<g><path style="opacity:1" fill="#b5b1b0" d="M 65.5,96.5 C 128.448,142.114 191.114,188.114 253.5,234.5C 242.39,244.552 230.723,253.885 218.5,262.5C 167.12,211.436 115.954,160.103 65,108.5C 64.5,201.166 64.3333,293.833 64.5,386.5C 64.5,387.167 64.5,387.833 64.5,388.5C 64.1667,388.5 63.8333,388.5 63.5,388.5C 63.5,294.5 63.5,200.5 63.5,106.5C 62.931,102.671 63.5977,99.3373 65.5,96.5 Z"/></g>
<g><path style="opacity:0.995" fill="#bdbdbd" d="M 414.5,388.5 C 390.167,388.5 365.833,388.5 341.5,388.5C 301.471,345.805 260.471,304.138 218.5,263.5C 218.5,263.167 218.5,262.833 218.5,262.5C 230.723,253.885 242.39,244.552 253.5,234.5C 286.427,211.58 319.094,188.246 351.5,164.5C 352.695,164.322 353.862,163.989 355,163.5C 358.12,164.593 358.287,166.093 355.5,168C 356.357,168.689 357.023,169.522 357.5,170.5C 355.027,172.098 355.027,173.598 357.5,175C 356.167,187.667 356.167,200.333 357.5,213C 356.833,213.667 356.167,214.333 355.5,215C 358.167,216.667 358.167,218.333 355.5,220C 358.167,221.667 358.167,223.333 355.5,225C 358.167,226.667 358.167,228.333 355.5,230C 358.167,231.667 358.167,233.333 355.5,235C 358.167,236.667 358.167,238.333 355.5,240C 358.167,241.667 358.167,243.333 355.5,245C 358.167,246.667 358.167,248.333 355.5,250C 358.167,251.667 358.167,253.333 355.5,255C 356.357,255.689 357.023,256.522 357.5,257.5C 355.027,259.098 355.027,260.598 357.5,262C 356.167,274.667 356.167,287.333 357.5,300C 356.833,300.667 356.167,301.333 355.5,302C 358.167,303.667 358.167,305.333 355.5,307C 358.167,308.667 358.167,310.333 355.5,312C 358.167,313.667 358.167,315.333 355.5,317C 358.167,318.667 358.167,320.333 355.5,322C 358.167,323.667 358.167,325.333 355.5,327C 358.167,328.667 358.167,330.333 355.5,332C 358.167,333.667 358.167,335.333 355.5,337C 358.167,338.667 358.167,340.333 355.5,342C 356.357,342.689 357.023,343.522 357.5,344.5C 355.027,346.098 355.027,347.598 357.5,349C 356.924,360.418 356.591,371.751 356.5,383C 357.701,383.903 358.535,385.069 359,386.5C 359.308,385.692 359.808,385.025 360.5,384.5C 377.908,386.151 395.408,387.151 413,387.5C 414.107,386.288 414.607,386.621 414.5,388.5 Z"/></g>
<g><path style="opacity:0.983" fill="#e2e2e2" d="M 218.5,263.5 C 260.471,304.138 301.471,345.805 341.5,388.5C 249.167,388.5 156.833,388.5 64.5,388.5C 64.5,387.833 64.5,387.167 64.5,386.5C 115.833,345.5 167.167,304.5 218.5,263.5 Z"/></g>
</svg>
