<svg width="20" height="18" viewBox="0 0 20 18" fill="none" xmlns="http://www.w3.org/2000/svg">
<path d="M17.612 2.38797C17.1722 1.94794 16.65 1.59888 16.0752 1.36073C15.5005 1.12258 14.8844 1 14.2623 1C13.6401 1 13.0241 1.12258 12.4493 1.36073C11.8746 1.59888 11.3524 1.94794 10.9126 2.38797L9.99977 3.30075L9.08699 2.38797C8.19858 1.49956 6.99364 1.00046 5.73725 1.00046C4.48085 1.00046 3.27591 1.49956 2.38751 2.38797C1.4991 3.27637 1 4.48131 1 5.73771C1 6.9941 1.4991 8.19904 2.38751 9.08745L3.30029 10.0002L9.99977 16.6997L16.6992 10.0002L17.612 9.08745C18.0521 8.64763 18.4011 8.12542 18.6393 7.55066C18.8774 6.9759 19 6.35985 19 5.73771C19 5.11556 18.8774 4.49951 18.6393 3.92475C18.4011 3.34999 18.0521 2.82779 17.612 2.38797Z" stroke="#F4F4F4" stroke-width="1.5" stroke-linecap="round" stroke-linejoin="round"/>
</svg>
