<?xml version="1.0" encoding="UTF-8"?>
<!DOCTYPE svg PUBLIC "-//W3C//DTD SVG 1.1//EN" "http://www.w3.org/Graphics/SVG/1.1/DTD/svg11.dtd">
<svg xmlns="http://www.w3.org/2000/svg" version="1.1" width="512px" height="512px" style="shape-rendering:geometricPrecision; text-rendering:geometricPrecision; image-rendering:optimizeQuality; fill-rule:evenodd; clip-rule:evenodd" xmlns:xlink="http://www.w3.org/1999/xlink">
<g><path style="opacity:0.999" fill="#0077d3" d="M 106.5,63.5 C 205.834,63.3333 305.167,63.5 404.5,64C 427.333,69.5 441.5,83.6667 447,106.5C 447.667,205.833 447.667,305.167 447,404.5C 441.5,427.333 427.333,441.5 404.5,447C 305.167,447.667 205.833,447.667 106.5,447C 83.6667,441.5 69.5,427.333 64,404.5C 63.3333,305.167 63.3333,205.833 64,106.5C 69.6815,83.6524 83.8481,69.3191 106.5,63.5 Z"/></g>
<g><path style="opacity:1" fill="#0072ca" d="M 151.5,116.5 C 181.998,118.841 194.832,135.174 190,165.5C 184.98,180.189 174.813,188.689 159.5,191C 170.161,191.5 180.828,191.667 191.5,191.5C 191.5,259.167 191.5,326.833 191.5,394.5C 166.592,394.828 141.759,394.494 117,393.5C 116.5,326.167 116.333,258.834 116.5,191.5C 126.839,191.666 137.172,191.5 147.5,191C 128.01,186.672 117.676,174.505 116.5,154.5C 117.872,132.135 129.538,119.468 151.5,116.5 Z"/></g>
<g><path style="opacity:1" fill="#0b6cbe" d="M 145.5,122.5 C 167.073,119.686 180.573,128.686 186,149.5C 186.348,174.818 173.848,186.985 148.5,186C 127.785,180.435 119.285,166.935 123,145.5C 126.658,134.01 134.158,126.343 145.5,122.5 Z"/></g>
<g><path style="opacity:1" fill="#fcfdfe" d="M 147.5,127.5 C 171.51,126.342 182.343,137.675 180,161.5C 177.167,171 171,177.167 161.5,180C 137.566,182.4 126.399,171.566 128,147.5C 131.351,137.65 137.851,130.983 147.5,127.5 Z"/></g>
<g><path style="opacity:1" fill="#0071c9" d="M 202.5,191.5 C 227.167,191.5 251.833,191.5 276.5,191.5C 276.177,195.226 276.511,198.893 277.5,202.5C 289.518,194.869 302.685,191.203 317,191.5C 358.405,192.901 383.405,213.901 392,254.5C 392.972,261.135 393.639,267.801 394,274.5C 394.667,314.167 394.667,353.833 394,393.5C 369.241,394.494 344.408,394.828 319.5,394.5C 319.667,356.165 319.5,317.832 319,279.5C 315.333,261.082 304.5,254.582 286.5,260C 281.748,263.414 278.581,267.914 277,273.5C 276.5,313.832 276.333,354.165 276.5,394.5C 251.833,394.5 227.167,394.5 202.5,394.5C 202.5,326.833 202.5,259.167 202.5,191.5 Z"/></g>
<g><path style="opacity:1" fill="#116ebf" d="M 121.5,196.5 C 143.167,196.5 164.833,196.5 186.5,196.5C 186.5,260.833 186.5,325.167 186.5,389.5C 164.925,389.827 143.425,389.494 122,388.5C 121.5,324.501 121.333,260.501 121.5,196.5 Z"/></g>
<g><path style="opacity:1" fill="#086bbe" d="M 207.5,196.5 C 228.833,196.5 250.167,196.5 271.5,196.5C 271.334,202.176 271.501,207.843 272,213.5C 287.36,200.383 305.193,194.883 325.5,197C 353.741,200.255 372.908,215.088 383,241.5C 385.427,248.299 387.094,255.299 388,262.5C 388.5,304.499 388.667,346.499 388.5,388.5C 367.167,388.5 345.833,388.5 324.5,388.5C 324.667,351.165 324.5,313.832 324,276.5C 319.722,258.109 308.222,250.275 289.5,253C 281.026,256.141 275.192,261.974 272,270.5C 271.5,309.832 271.333,349.165 271.5,388.5C 250.167,388.5 228.833,388.5 207.5,388.5C 207.5,324.5 207.5,260.5 207.5,196.5 Z"/></g>
<g><path style="opacity:1" fill="#fefffe" d="M 127.5,202.5 C 145.167,202.5 162.833,202.5 180.5,202.5C 180.5,262.833 180.5,323.167 180.5,383.5C 162.833,383.5 145.167,383.5 127.5,383.5C 127.5,323.167 127.5,262.833 127.5,202.5 Z"/></g>
<g><path style="opacity:1" fill="#fefefe" d="M 267.5,228.5 C 278.286,210.437 294.286,201.77 315.5,202.5C 355.596,203.755 378.096,224.422 383,264.5C 383.5,304.165 383.667,343.832 383.5,383.5C 365.833,383.5 348.167,383.5 330.5,383.5C 330.968,346.793 330.468,310.126 329,273.5C 320.509,249.673 304.343,242.173 280.5,251C 274.532,255.643 270.032,261.476 267,268.5C 266.5,306.832 266.333,345.165 266.5,383.5C 248.833,383.5 231.167,383.5 213.5,383.5C 213.5,323.167 213.5,262.833 213.5,202.5C 230.833,202.5 248.167,202.5 265.5,202.5C 265.168,211.525 265.502,220.525 266.5,229.5C 267.107,229.376 267.44,229.043 267.5,228.5 Z"/></g>
<g><path style="opacity:1" fill="#97c0e3" d="M 267.5,228.5 C 267.44,229.043 267.107,229.376 266.5,229.5C 265.502,220.525 265.168,211.525 265.5,202.5C 248.167,202.5 230.833,202.5 213.5,202.5C 213.5,262.833 213.5,323.167 213.5,383.5C 212.501,323.002 212.168,262.336 212.5,201.5C 230.5,201.5 248.5,201.5 266.5,201.5C 266.173,210.682 266.507,219.682 267.5,228.5 Z"/></g>
</svg>
