<svg width="20" height="5" viewBox="0 0 20 5" fill="none" xmlns="http://www.w3.org/2000/svg">
<path d="M10 3.77249C10.6213 3.77249 11.125 3.30747 11.125 2.73384C11.125 2.16021 10.6213 1.69519 10 1.69519C9.37868 1.69519 8.875 2.16021 8.875 2.73384C8.875 3.30747 9.37868 3.77249 10 3.77249Z" stroke="#F4F4F4" stroke-width="1.5" stroke-linecap="round" stroke-linejoin="round"/>
<path d="M17.875 3.77249C18.4963 3.77249 19 3.30747 19 2.73384C19 2.16021 18.4963 1.69519 17.875 1.69519C17.2537 1.69519 16.75 2.16021 16.75 2.73384C16.75 3.30747 17.2537 3.77249 17.875 3.77249Z" stroke="#F4F4F4" stroke-width="1.5" stroke-linecap="round" stroke-linejoin="round"/>
<path d="M2.125 3.77249C2.74632 3.77249 3.25 3.30747 3.25 2.73384C3.25 2.16021 2.74632 1.69519 2.125 1.69519C1.50368 1.69519 1 2.16021 1 2.73384C1 3.30747 1.50368 3.77249 2.125 3.77249Z" stroke="#F4F4F4" stroke-width="1.5" stroke-linecap="round" stroke-linejoin="round"/>
</svg>
