<svg width="15" height="15" viewBox="0 0 15 15" fill="none" xmlns="http://www.w3.org/2000/svg">
<path d="M14 8.08559C13.8861 9.31757 13.4238 10.4917 12.667 11.4704C11.9102 12.4492 10.8904 13.1923 9.72672 13.6126C8.56307 14.0329 7.30378 14.1131 6.09621 13.8439C4.88863 13.5746 3.78271 12.967 2.90785 12.0921C2.033 11.2173 1.42539 10.1114 1.15613 8.90379C0.88687 7.69622 0.967092 6.43693 1.38741 5.27328C1.80773 4.10963 2.55076 3.08975 3.52955 2.33298C4.50835 1.57621 5.68243 1.11385 6.91441 1C6.19313 1.97582 5.84604 3.17811 5.93628 4.38821C6.02652 5.59831 6.54809 6.73582 7.40614 7.59387C8.26418 8.45191 9.4017 8.97348 10.6118 9.06372C11.8219 9.15396 13.0242 8.80687 14 8.08559Z" stroke="black" stroke-width="1.25" stroke-linecap="round" stroke-linejoin="round"/>
</svg>
