<svg width="15" height="17" viewBox="0 0 15 17" fill="none" xmlns="http://www.w3.org/2000/svg">
<path d="M11.8333 5.33333C13.0299 5.33333 14 4.36328 14 3.16667C14 1.97005 13.0299 1 11.8333 1C10.6367 1 9.66666 1.97005 9.66666 3.16667C9.66666 4.36328 10.6367 5.33333 11.8333 5.33333Z" stroke="#F4F4F4" stroke-width="1.25" stroke-linecap="round" stroke-linejoin="round"/>
<path d="M3.16667 10.3889C4.36328 10.3889 5.33333 9.41883 5.33333 8.22221C5.33333 7.02559 4.36328 6.05554 3.16667 6.05554C1.97005 6.05554 1 7.02559 1 8.22221C1 9.41883 1.97005 10.3889 3.16667 10.3889Z" stroke="#F4F4F4" stroke-width="1.25" stroke-linecap="round" stroke-linejoin="round"/>
<path d="M11.8333 15.4445C13.0299 15.4445 14 14.4744 14 13.2778C14 12.0812 13.0299 11.1111 11.8333 11.1111C10.6367 11.1111 9.66666 12.0812 9.66666 13.2778C9.66666 14.4744 10.6367 15.4445 11.8333 15.4445Z" stroke="#F4F4F4" stroke-width="1.25" stroke-linecap="round" stroke-linejoin="round"/>
<path d="M5.03722 9.31281L9.97 12.1872" stroke="#F4F4F4" stroke-width="1.25" stroke-linecap="round" stroke-linejoin="round"/>
<path d="M9.96278 4.25726L5.03722 7.13171" stroke="#F4F4F4" stroke-width="1.25" stroke-linecap="round" stroke-linejoin="round"/>
</svg>
