<svg xmlns="http://www.w3.org/2000/svg" viewBox="0 0 32 32" id="support"><path fill="#004463" d="M21 28h-2c-.3 0-.5-.2-.5-.5s.2-.5.5-.5h2c3 0 5.5-2.5 5.5-5.5v-1c0-.3.2-.5.5-.5s.5.2.5.5v1c0 3.6-2.9 6.5-6.5 6.5z"></path><path fill="#607d95" d="M19.5 27.5c0 .6-.4 1-1 1h-1c-.6 0-1-.4-1-1s.4-1 1-1h1c.6 0 1 .4 1 1z"></path><path fill="#004463" d="M26 16c-.3 0-.5-.2-.5-.5v-3c0-.3.2-.5.5-.5s.5.2.5.5v3c0 .3-.2.5-.5.5zM5 16c-.3 0-.5-.2-.5-.5v-3c0-.3.2-.5.5-.5s.5.2.5.5v3c0 .3-.2.5-.5.5z"></path><path fill="#607d95" d="M25 15.5h2c.6 0 1 .4 1 1v4c0 .6-.4 1-1 1h-2v-6z"></path><path fill="#01a6ff" d="M25.9 13c.6 0 1.1-.5 1-1.1-.5-5.8-5.4-10.4-11.4-10.4S4.6 6.1 4.1 11.9c-.1.6.4 1.1 1 1.1.5 0 .9-.4 1-.9.4-4.8 4.5-8.6 9.5-8.6s9 3.8 9.5 8.6c-.1.5.3.9.8.9z"></path><path fill="#006ef4" d="M6.1 11.9C6.6 6.4 11 2 16.5 1.5h-1c-6 0-10.9 4.6-11.4 10.4-.1.6.4 1.1 1 1.1.5 0 .9-.4 1-.9-.1 0 0-.1 0-.2 0 0-.1 0 0 0zm11.4-8.4c-.3 0-.7 0-1 .1 4.5.5 8 4.1 8.5 8.6 0 .5.5.9 1 .9.6 0 1-.5 1-1-.6-4.9-4.6-8.6-9.5-8.6z"></path><path fill="#eef2fa" d="M19 18.5h-7c-.6 0-1 .4-1 1v4c0 .6.4 1 1 1h1v2l3-2h3c.6 0 1-.4 1-1v-4c0-.6-.4-1-1-1z"></path><path fill="#d5e5f2" d="M15 25.2v-.7h-1c-.6 0-1-.4-1-1v-4c0-.6.4-1 1-1h-2c-.6 0-1 .4-1 1v4c0 .6.4 1 1 1h1v2l2-1.3z"></path><path fill="#4b6c85" d="M7 22.5c-.6 0-1-.4-1-1v-6c0-.6.4-1 1-1s1 .4 1 1v6c0 .6-.4 1-1 1zm17-8c.6 0 1 .4 1 1v6c0 .6-.4 1-1 1s-1-.4-1-1v-6c0-.6.4-1 1-1z"></path><path fill="#40657c" d="M7 20.5c-.6 0-1-.4-1-1v2c0 .6.4 1 1 1s1-.4 1-1v-2c0 .6-.4 1-1 1zm17 0c-.6 0-1-.4-1-1v2c0 .6.4 1 1 1s1-.4 1-1v-2c0 .6-.4 1-1 1z"></path><path fill="#607d95" d="M6 21.5H4c-.6 0-1-.4-1-1v-4c0-.6.4-1 1-1h2v6z"></path><path fill="#4b6c85" d="M4.5 15.5V19c0 .6-.4 1-1 1H3v.5c0 .6.4 1 1 1h2v-6H4.5zm22 0V19c0 .6.4 1 1 1h.5v.5c0 .6-.4 1-1 1h-2v-6h1.5z"></path><path fill="#99b5ce" d="M18.1 21h-5.2c-.3 0-.5-.2-.5-.5s.2-.5.5-.5h5.2c.3 0 .5.2.5.5s-.2.5-.5.5zm-2 2h-3.2c-.3 0-.5-.2-.5-.5s.2-.5.5-.5h3.2c.3 0 .5.2.5.5s-.2.5-.5.5z"></path></svg>