<?xml version="1.0" encoding="UTF-8"?>
<!DOCTYPE svg PUBLIC "-//W3C//DTD SVG 1.1//EN" "http://www.w3.org/Graphics/SVG/1.1/DTD/svg11.dtd">
<svg xmlns="http://www.w3.org/2000/svg" version="1.1" width="512px" height="512px" style="shape-rendering:geometricPrecision; text-rendering:geometricPrecision; image-rendering:optimizeQuality; fill-rule:evenodd; clip-rule:evenodd" xmlns:xlink="http://www.w3.org/1999/xlink">
<g><path style="opacity:0.998" fill="#37aee2" d="M 60.5,-0.5 C 190.5,-0.5 320.5,-0.5 450.5,-0.5C 482.5,8.16667 502.833,28.5 511.5,60.5C 511.5,190.5 511.5,320.5 511.5,450.5C 502.833,482.5 482.5,502.833 450.5,511.5C 320.5,511.5 190.5,511.5 60.5,511.5C 28.5,502.833 8.16667,482.5 -0.5,450.5C -0.5,320.5 -0.5,190.5 -0.5,60.5C 8.16667,28.5 28.5,8.16667 60.5,-0.5 Z"/></g>
<g><path style="opacity:1" fill="#f5fafd" d="M 423.5,129.5 C 423.653,135.869 423.32,142.203 422.5,148.5C 412.74,193.056 403.406,237.723 394.5,282.5C 393.076,284.515 392.41,286.848 392.5,289.5C 391.182,294.773 390.182,300.107 389.5,305.5C 388.076,307.515 387.41,309.848 387.5,312.5C 381.189,344.602 374.356,376.602 367,408.5C 361.75,421.042 352.916,424.542 340.5,419C 311.981,397.913 283.314,377.079 254.5,356.5C 237.871,344.178 221.205,331.845 204.5,319.5C 206.557,315.933 209.223,312.766 212.5,310C 261.965,266.204 311.132,222.037 360,177.5C 360.72,175.888 360.554,174.388 359.5,173C 354,172.238 349,173.572 344.5,177C 282.138,216.844 219.805,256.677 157.5,296.5C 126.913,287.437 96.5799,277.604 66.5,267C 62.8697,263.95 61.703,260.117 63,255.5C 64.8333,252.333 67.3333,249.833 70.5,248C 180.954,204.439 291.621,161.439 402.5,119C 412.551,116.692 419.551,120.192 423.5,129.5 Z"/></g>
<g><path style="opacity:1" fill="#addcf3" d="M 423.5,129.5 C 424.164,131.978 424.497,134.645 424.5,137.5C 424.706,141.469 424.039,145.135 422.5,148.5C 423.32,142.203 423.653,135.869 423.5,129.5 Z"/></g>
<g><path style="opacity:1" fill="#c8daea" d="M 204.5,319.5 C 201.915,346.971 199.915,374.638 198.5,402.5C 196.5,402.5 194.5,402.5 192.5,402.5C 190.983,402.489 189.816,401.823 189,400.5C 178.684,365.734 168.184,331.067 157.5,296.5C 219.805,256.677 282.138,216.844 344.5,177C 349,173.572 354,172.238 359.5,173C 360.554,174.388 360.72,175.888 360,177.5C 311.132,222.037 261.965,266.204 212.5,310C 209.223,312.766 206.557,315.933 204.5,319.5 Z"/></g>
<g><path style="opacity:1" fill="#9bd5f0" d="M 394.5,282.5 C 394.59,285.152 393.924,287.485 392.5,289.5C 392.41,286.848 393.076,284.515 394.5,282.5 Z"/></g>
<g><path style="opacity:1" fill="#a5d9f1" d="M 389.5,305.5 C 389.59,308.152 388.924,310.485 387.5,312.5C 387.41,309.848 388.076,307.515 389.5,305.5 Z"/></g>
<g><path style="opacity:1" fill="#a9c9dd" d="M 204.5,319.5 C 221.205,331.845 237.871,344.178 254.5,356.5C 240.392,370.439 226.059,384.272 211.5,398C 205.822,402.838 199.488,404.338 192.5,402.5C 194.5,402.5 196.5,402.5 198.5,402.5C 199.915,374.638 201.915,346.971 204.5,319.5 Z"/></g>
</svg>
