<svg width="14" height="15" viewBox="0 0 14 15" fill="none" xmlns="http://www.w3.org/2000/svg">
<path d="M1 3.66663H2.33333H13" stroke="#F4F4F4" stroke-width="1.25" stroke-linecap="round" stroke-linejoin="round"/>
<path d="M11.6667 3.66667V13C11.6667 13.3536 11.5262 13.6928 11.2761 13.9428C11.0261 14.1929 10.687 14.3333 10.3333 14.3333H3.66666C3.31304 14.3333 2.9739 14.1929 2.72385 13.9428C2.4738 13.6928 2.33333 13.3536 2.33333 13V3.66667M4.33333 3.66667V2.33333C4.33333 1.97971 4.4738 1.64057 4.72385 1.39052C4.9739 1.14048 5.31304 1 5.66666 1H8.33333C8.68695 1 9.02609 1.14048 9.27614 1.39052C9.52619 1.64057 9.66666 1.97971 9.66666 2.33333V3.66667" stroke="#F4F4F4" stroke-width="1.25" stroke-linecap="round" stroke-linejoin="round"/>
<path d="M5.66667 7V11" stroke="#F4F4F4" stroke-width="1.25" stroke-linecap="round" stroke-linejoin="round"/>
<path d="M8.33333 7V11" stroke="#F4F4F4" stroke-width="1.25" stroke-linecap="round" stroke-linejoin="round"/>
</svg>
